<?xml version="1.0" encoding="utf-8"?>
<!-- Generator: Adobe Illustrator 25.2.1, SVG Export Plug-In . SVG Version: 6.00 Build 0)  -->
<svg version="1.1" id="Layer_1" xmlns="http://www.w3.org/2000/svg" xmlns:xlink="http://www.w3.org/1999/xlink" x="0px" y="0px"
	 viewBox="0 0 1440 523.7" style="enable-background:new 0 0 1440 523.7;" xml:space="preserve">
<style type="text/css">
	<!-- .st0{fill:#D6CD85;} -->
	path {
		stroke-width:1;
		fill:#D6CD85;
		stroke:#D6CD85;
		stroke-miterlimit:10;

		stroke-dasharray: 10000;
		stroke-dashoffset: 0;
		<!-- animation: dash 3s normal forwards ease-in-out; -->
	}

	@keyframes dash {
	  0%{
            stroke-dashoffset:0;
            stroke-dasharray:100000;
            <!-- fill:transparent; -->
            <!-- opacity:0 -->
      }
      100%{
            <!-- fill:#D6CD85; -->
            <!-- opacity:1; -->
            stroke-dashoffset:0;
            stroke-dasharray:0;
      }
	}
</style>
<path class="st0" d="M55.1,192.7c13-6.1,25.1-14.1,37.2-21.8c-11,9.6-21.9,19.5-34.9,25.5c-26.4,12.3-44.8,32.4-69.3,47.2"/>
<path class="st0" d="M54,190.8l-0.3,0l-0.4,0.6L54,190.8z"/>
<path class="st0" d="M50.6,193.2c0.1,0,0.1,0.1,0.3,0.1l1.7-1.9C51.3,191.4,51.4,193.2,50.6,193.2z"/>
<path class="st0" d="M49.9,193.5c-1,0.2-1.1,0.8-1.2,1C48.8,194,50.3,193.8,49.9,193.5z"/>
<path class="st0" d="M8.1,230c6.7-3.7,12.7-11.4,19.1-14.8c6.4-3.7,12.3-7.7,18.3-11.5c3-1.9,6-3.8,9.2-5.6c3.1-1.8,6.4-3.6,9.3-5.6
	c10.8-5.9,18.7-14.7,27.9-21.8l0.7,0.6c-1.1,0.6-2.2,1.2-3.3,1.8c-4.7,3.9-11.6,6.2-17.3,9.9l0.4,0.1c-2.6,0.6-4.1,3.7-6.1,3.5
	l0.2-0.2c-1.5,0.1-1.8,2.6-3,2.4l0,0.3c-1.4,0.8-0.4-0.2-1.5,0.3c-0.4,0.2,0.2,0.5-0.8,0.8c-0.9-0.9-3.4,2-4.2,0.9
	c0.8-0.4-1.5,0.1,0.1-0.9c-0.6,0.1-2.9,1.3-2.4,1.7c0.1,0.6-0.6,1.5,1.2,1.2l0.1-0.5c0.7,0.1,0.5,0,0.9,0.2c2-0.9,2.6-0.5,4.1-0.9
	c0,0,0,0,0,0c0.6-0.9,2.1-1.3,2.9-1.7l0.4,0c0.8,0.2,1.5-2,1.5-0.9c3.7-2.2,7.9-4.8,12-7.3c0.4-0.6,3.1-1.9,1.8-1.9
	c1.5-0.1,4.6-1.8,5.7-2.5c0,0.1,0,0.2-0.2,0.3c2.8-0.6,2-2.3,4.8-2.7c-0.2-0.7,2.5-1.7,3.7-2.8l-2.7-2.7c-0.2,0.3-0.4,0.6-0.4,0.9
	c-0.4,0.1-0.6,0-0.6-0.1c-3.2,2.8-6.9,5.6-9.7,7.9c-1.7,2.5-5.9,4.4-7.2,6.7c-1.9,1.2-5,2.9-7.3,4.8l0.2-0.3c-2.8,1.9-6.5,4-8.3,5.5
	c-1.4-0.4-2.7,0.5-4.3,0.9c-1.9,1.4-6.3,3.6-9.1,5.9c-0.8-0.1-2.4,1.7-3,1.3c-7.8,6.3-17.8,13.4-26.8,19.2l0.1-0.1
	c-0.8,1.1-1.5,2.6-2.2,3.8c-0.2,0-0.2,0,0-0.2c-1.4,1.3-3.3,1.9-4.8,3.1c-0.1-0.1-0.1-0.1,0.1-0.3c-1.2,1.3-3.3,1.9-4.7,3.5L2.5,232
	l-0.9,1c-0.1-0.2-0.3-0.4,0.3-0.8"/>
<path class="st0" d="M-2.1,224.5c-0.1,0.1-0.1,0.2-0.2,0.4c0.4-0.4,0.7-0.9,1.2-1.1c0.2,0,0,0.2-0.2,0.3c2.3-0.7,5.4-3.8,6.9-4.1
	c0.5-0.4,0.6-0.7,0.1-0.7c7.1-4.5,14.6-9.3,21.8-13.8c0.4-0.1,0.6,0,0.6,0.2c5.8-4.4,12.8-7.8,19.7-11c0.1-0.4-0.8,0.1-0.3-0.5
	c-2.4,0.8-3.6,2.5-5.9,3.2l0.1-0.3c-1.5,0.6,0.1,0.7-1.6,1.2c-0.7,0.1,0-0.3-0.3-0.2c-3,1.7-6.2,3.2-8.6,5.2c-1-0.1-3.2,1.8-4.6,2
	c-0.6,0.6-1.4,1-1.5,1.5C14.8,212.3,4.8,219-5.4,225.3"/>
<path class="st0" d="M61.4,191.7c-0.2,0.1-0.4,0.1-0.5,0.2C60.9,192,61.2,191.8,61.4,191.7z"/>
<path class="st0" d="M709,33.6c8.6-1.3,17.2-2.6,25.7-3.9c-8.4,2.1-17,3.9-25.5,5.2c-24,3.6-46.4,17.8-70.3,21.4
	c-24,3.6-47.4,10.9-71.3,14.5c-29.2,4.4-59.7,1.2-88.9,5.8c-29.3,4.7-58.3,10-87.5,15.3c-29.2,5.3-56.4,17.4-85.3,23.8
	c-28.9,6.5-54.3,20.9-82.7,28.9c-17.9,5-39.4,0.4-59.9-1.3c19-2.5,38.6-3.3,56.5-8.4c28.4-8,54.1-24.4,83-30.9
	c28.8-6.4,56.7-18.8,85.9-24.1c29.1-5.3,60.4,0.6,89.6-4c29.3-4.6,58.1-12.6,87.3-17c24-3.6,47.9-7.2,71.9-10.8
	C661.7,44.5,685.1,37.2,709,33.6z"/>
<path class="st0" d="M699.4,33.7c0.3,0,0.2,0.1,0.5,0.1l5.3-1.9C702.6,31.8,701.1,33.8,699.4,33.7z"/>
<path class="st0" d="M697.8,34c-2.2,0.2-3,0.8-3.4,1.1C695,34.5,698.3,34.4,697.8,34z"/>
<path class="st0" d="M462.5,77.8l-0.5,0.4c9.2-1,19.7-2,29.2-4.1l-0.6,0.2c24.5-4.4,46.4-10.7,70.7-15c-0.4,0.1-0.5,0.2-0.9,0.3
	c1.2-0.3,2.4-0.7,3.7-0.9c0.4,0-0.3,0.2-0.8,0.3c5.2-0.2,15-2.7,18.3-2.7c1.4-0.3,2-0.6,1.2-0.7c19-3,39.4-6.1,58.7-9.6
	c0.9-0.1,1.1,0.1,0.9,0.3c16.3-3.8,33.3-7.9,50.2-11.3c0.6-0.4-1.8,0.1-0.2-0.5c-5.5,0.8-9.8,2.8-14.8,3.4l0.6-0.4
	c-3.6,0.7-0.6,0.8-4.3,1.3c-1.5,0.1,0.3-0.4-0.4-0.3c-7.5,1.8-15.4,3.4-22.4,5.4c-1.9-0.2-8.1,1.6-11,1.5c-1.9,0.5-3.9,0.8-4.6,1.2
	c-26.8,3.8-54.1,8.2-81.6,12.6c-12.6,3.3-28.1,5.5-43.1,9c-0.1,0-0.1-0.1,0-0.1c-4.8,1.3-12,2.9-17.9,3.9l-4.9,1.4
	c-8.9,1.4-17.8,2.6-26.8,2.9c-9,0.3-18.1,0.2-27.2,0c-9.1-0.1-18.3-0.2-27.5,0.2c-9.2,0.4-18.5,1.9-27.5,3.8
	c-20.5,4.6-38.9,11.2-57.3,16.6c-4.6,1.4-9.2,2.6-13.9,3.8c-4.6,1.2-9.5,2.2-14.2,3.7c-9.5,2.8-18.6,6.7-27.6,11
	c0-0.1-0.3,0,0.6-0.5c-10.6,4.7-20.3,8.8-30.3,12.9l0-0.1c-5.6,2.4-11.4,4.5-17.5,6.3c-6,1.7-12.3,2.9-18.6,3.9
	c-12.6,1.9-25.2,2.8-37.3,4.6l-5,0.8l5,0.3c2.6,0.2,5.2,0.4,7.6,0.5c7.9,0.9,15.9,2,24.3,2.5c8.3,0.6,17.1,0.6,25.6-1.4
	c16.8-4.4,32.7-11.6,48.3-17.8l0,0.2c12.4-5.2,25-9.5,38.1-12.2c13.1-2.8,25.9-6.7,38.7-11c13.3-4,26.8-8.6,40.8-11.8
	c14-2.9,28.2-5.5,42.1-7.7c8.7-1,18.5-3,28.3-5c4.9-1,9.7-2,14.3-2.8c4.6-0.9,9.1-1.6,13.2-1.8c16.8-1.2,33.1-1,49.7-1.6
	c8.3-0.3,16.5-0.9,24.8-2c8.3-1.1,16.4-2.7,24.6-4.7c15.2-2.8,30.1-7,45.2-9.9c7.6-1.5,15.1-2.4,22.4-4.6c7.3-2,14.3-4.6,21.4-7
	c6.4-2.9,13.4-5.4,20.9-7.3c3.7-1,7.5-1.8,11.3-2.5c3.8-0.6,7.8-1.1,11.7-1.9l-0.6-0.2c5.8-0.2,12.1-3.6,15.9-3.3l-0.6,0.2
	c1.2-0.1,2.4-0.5,3.6-1l-0.1-0.4c-1.9,0.7-3.8,1.5-4.9,1.3l-0.4,0.4c-3.6,0.6-0.5-0.3-3.3,0c-1,0.2-0.3,0.6-2.5,0.7
	c-0.6-1.1-8.8,1.6-9.2,0.3c2-0.3-3.2,0,1.2-1c-1.3,0.1-7.3,1-6.7,1.5c-0.4,0.7-2.7,1.5,1,1.4l0.7-0.5c1.3,0.2,1,0.1,1.5,0.3
	c4.8-0.7,5.5-0.1,9-0.4c0,0-0.1,0,0,0c2.3-0.9,5.6-1.1,7.4-1.3l0.8,0.1c1.2,0.3,5.3-1.8,4-0.7c0.5-0.1,1.1-0.2,1.8-0.3l-0.7-3.3
	c-4.5,1.2-9.3,2.4-14.2,3.4c-5,1.1-10,1.7-15.3,2.7c-1.5,0.6-8.3,2-5.8,2c-2.9-0.1-10.9,2.3-13.7,3.4c0.1-0.1,0.2-0.2,0.6-0.4
	c-6,1.1-6.2,3.2-11.8,4.1c-0.5,1.1-9.4,3.3-11.9,5.2c-0.7,0.1-1,0-0.8-0.2c-4.6,1.6-9.5,3.1-14.3,4.2c-4.8,1.1-9.4,1.7-13.7,2.4
	c-7,1.9-17.3,3-23.1,5.4c-5.1,0.9-13.2,2.4-20.1,4.3l0.6-0.3c-7.8,1.8-17.6,3.7-23,5.2c-2.5-0.6-5.8,0.1-9.3,0.1
	c-5.2,1-16,1.6-24.2,2.1c-1.2-0.4-6.8,0.4-7.2-0.3c-11.5,0.9-24.4,1.2-37.5,2.4c-6.6,0.6-13.2,1.6-19.6,2.6
	c-6.4,0.9-12.8,1.8-18.9,2.7l0.3-0.1c-3.1,0.9-6.6,2.3-9.7,3.3c-0.3,0-0.3-0.1,0.4-0.2c-4.4,0.9-8.7,1-13.1,1.9c0-0.1,0-0.1,0.7-0.3
	c-4.1,1-8.7,1-13.5,2.3l-0.3-0.1l-3.1,0.8c0-0.2,0.1-0.6,1.8-0.8c-9.5,1.7-19.1,3.2-28.8,5.2c-9.7,2.1-19.2,4.9-28.5,7.9
	c-18.8,6.1-37.2,12.7-56.6,16.8l1.4-0.5c-2.5,0.7-4.9,1.6-7.4,2.3c0-0.1,0.3-0.3,0.7-0.4c-9.6,2.4-18.9,6.5-27.7,9.9
	c0-0.1,1.2-0.8-0.1-0.4c-6.2,3.1-10.8,3.5-13.5,5.9c-0.3,0.1-0.7-0.1,0-0.4c-17.8,7.3-36.7,15.8-56.3,13.4
	c-11,0.1-22.7-1.9-34.4-2.8l0,1.3c5.7-0.8,11.3-1.4,16.8-2.3l-0.1,0.2c11-1.5,22.4-2.7,33.6-5.2c11.3-2.5,22.2-6.5,32.6-11
	c8.7-3.6,14.4-6.5,23.1-10.2l0.3,0.1c7.1-3.5,15-6.4,23.3-8.7c8.2-2.2,16.8-3.6,24.7-6.6l-1,0.7c2.3-1.2,9.8-2.7,8.5-3.3l2.9-0.6
	c10.4-4.5,19.9-5.8,33-10.6l-0.8,0.5c3.5-1.2,7.6-2.5,10.4-3c-0.4,0.1-0.2,0.2-1,0.4c11.5-2.2,23.9-5.8,36.3-6.4l-1.4,0.5
	c5.9-1,16.8-0.6,24.5-0.7l-0.5,0.2l4-0.2l0.1,0.4C443,78.5,452.6,78.3,462.5,77.8z"/>\
<path class="st0" d="M941,6.6c-2.8-1.1-5.9-1.9-9.1-2.5c3.7-0.8,7.3-1,10.5,0.3c6.3,2.6,12.3,6.6,17.9,11.1
	C953.8,12.2,947.3,9.1,941,6.6z"/>
<path class="st0" d="M1441.9,143.2c-14.9-4.8-30.2-9.2-45.2-13.9c-12.2-3.8-23.7-9.1-35.4-13.7c13.2,1.2,26.2,3.3,38.8,7.3
	C1415.4,127.7,1429,135,1441.9,143.2z"/>
<path class="st0" d="M1440.9,140.9c0,0,0.1,0.1,0.1,0.1C1441.1,140.9,1441,140.9,1440.9,140.9z"/>
<path class="st0" d="M131.3,150.4c-13.9,5-26.5,12.6-39,20.5c11.4-10,23-19.8,37-24.8c10.3-3.7,22-3.8,34-2.8
	C152.3,144.7,141.5,146.7,131.3,150.4z"/>
<path class="st1" stroke-width="1" fill="none" stroke="#D6CD85" stroke-miterlimit="10" d="M132.2,152.4l0.1,0.1l0-0.4L132.2,152.4z"/>
<path class="st0" d="M162.4,143.5l-0.1,0.4c0.4-0.2,0.7-0.2,1.1-0.2l0-0.6c-0.9,0.2-2,0-2.9,0.4l0.1-0.1c-3.4,0.3-6.3,1.4-9.5,2.3
	c0,0,0-0.2,0.1-0.2c-0.1,0.2-0.3,0.4-0.4,0.4c-0.1-0.1,0-0.2,0.1-0.2c-0.8-0.5-1.9,0.8-2.5,0.4c-0.2,0.1-0.2,0.4-0.1,0.5
	c-2.5,0.7-5.2,1.4-7.6,2.5c-0.1,0-0.2-0.2-0.2-0.4c-1.9,1.5-4.2,1.8-6.4,2.4c0,0.3,0.3,0.2,0.2,0.5c0.8,0.1,1-1,1.8-0.8l0,0.3
	c0.5,0-0.1-0.6,0.5-0.5c0.3,0.1,0.1,0.3,0.2,0.3c0.9-0.4,2-0.5,2.8-1.3c0.4,0.4,1.1-0.3,1.6,0.1c0.2-0.3,0.5-0.3,0.5-0.7
	c3.6-0.6,7-1.9,10.7-2.5c1.5-1.3,3.8-0.5,5.8-1.1c0,0,0,0.1,0,0.1c0.6-0.4,1.6-0.6,2.4-0.6l0.6-0.5c0.9,0,1.7,0,2.6,0l8.8-0.4
	l-8.8-1.5c-4-0.7-8.1-0.6-12.3-0.8c-5.6-0.2-11-0.6-16.2,2c0-0.1-0.1-0.1,0.1-0.2c-1.5,0.6-3.1,0.6-4.5,1.3l0-0.1
	c-3.2,2-7.4,2.7-10,5.2c-3.8,1.9-7.9,4.5-11.2,7.3l-0.1-0.2c-2.5,2.4-6.1,3.7-8.5,6.2c-3.2,2-4.7,5.6-7.9,7.5
	c-0.3,0.1-0.5,0.2-0.7,0.3l0.4,0.4c2.1-0.8,3.2-3.6,5.5-3.8c4.8-1,7.8-4,11.1-7c3.9-1.5,6.7-4.7,11-5.4c1.3-1.5,4.1-0.9,5.9-1.9
	l-0.2-0.2c1.1,0.4,1.1-1.6,2-0.8l-0.1,0.1c0.6,0.4,0.2-1.6,0.8-1.1l-0.1-0.3c0.4-0.2,0.2,0.3,0.6,0.2c0.1-0.1-0.2-0.5,0.2-0.5
	c0.6,1.1,1-0.7,1.6,0.6c-0.2,0.1,0.6,0.3,0.2,0.8c0.2,0.1,0.9-0.3,0.6-0.8c-0.2-0.6-0.1-1.2-0.8-1.4l0.1,0.4
	c-0.3-0.3-0.2-0.2-0.4-0.4c-0.6,0.2-1-0.4-1.6-0.4c0,0,0,0,0,0c-0.1,0.6-0.6,0.5-0.9,0.5l-0.2-0.2c-0.4-0.4-0.2,1.2-0.5,0.3
	c-1.2,0.7-2.6,1.3-3.9,1.9c0,0.4-1.1,0.4-0.4,0.9c-0.7-0.5-1.8-0.2-2.2,0c0-0.1,0-0.1,0-0.1c-1.2-0.5-0.4,1.2-1.7,0.5
	c0.3,0.8-1.4,0.4-1.2,1.4c-0.2-0.1-0.3-0.2-0.3-0.4c-1.2,0.6-2.7,1-3.7,1.5c-0.4,1.1-2.3,0.8-2.4,2c-0.7,0.1-2,0.3-2.6,1.1l0-0.1
	c-0.9,0.6-2.1,1.3-2.3,2.2c-0.9-0.6-1.2-0.2-1.8-0.3c-0.3,0.7-1.7,1.3-2.4,2.2c-0.4-0.3-0.7,0.6-1.1,0.1c-1.8,2.6-5.3,4.2-8.7,5.2
	l0-0.1c-0.1,0.5,0,1.4-0.1,2c-0.1,0-0.1-0.1-0.1-0.2c-0.3,0.3-0.7,0.3-1.1,0.3l1.7,1.6c0.2-0.1,0.4-0.2,0.6-0.3
	c0.1,0.1,0.1,0.1,0.1,0.2c0.2-0.5,1.3-0.4,1.3-1.1l0.2,0.1l0.1-0.4c0.2,0.1,0.4,0.4,0.2,0.5c3.9-3.1,6.9-7.1,11-10.1l0,0.3l0.5-0.9
	c0.1,0.1,0.1,0.1,0.1,0.2c1.3-0.5,1.9-1.7,2.9-2.4c0.1,0.1,0.1,0.3,0.3,0.3c0.3-1,1.7-0.3,1.2-1.4c0.1,0,0.3,0.2,0.3,0.3
	c1.8-1.7,4-3.1,6.3-4.3c1.2-2,3.9-2.3,5.5-4l0.1,0.2c2.3-1.9,5.6-2.4,8.5-3.3c1.2-0.3,2-0.7,3.3-1l0.1,0.3c1.9-1.5,4.6,0.1,6.7-1.3
	l-0.1,0.4c0.3-0.6,1.4,0.1,1.2-0.9l0.4,0.3c1.5-1.4,2.8,0.4,4.7-0.5l-0.1,0.2c0.5-0.2,1.1-0.3,1.5-0.1c-0.1,0,0,0.1-0.2,0.2
	c1.5,0.9,3.3-0.1,5,0l-0.2,0.4c0.9-0.5,2.3,0,3.3-0.1l-0.1,0.2l0.6-0.3l0,0.4C159.7,143.7,161,143.4,162.4,143.5z"/>
<path class="st0" d="M901.2,4.7c9.3-1.4,20.8-2.3,30.8-0.6c-9.6,2.2-20.5,9.4-29.4,10.7c-21.4,3.1-44.2-4.1-65.5-0.9
	c-34.1,5.1-68.2,10.5-102.2,15.7c33.6-8.4,66.5-21.7,100.6-26.9C856.7-0.4,879.8,7.8,901.2,4.7z"/>
<path class="st0" d="M1321,112.8c-26.7-1.9-53.5-0.7-81-0.4c-27.3,0.3-54.2-5.9-81.1-7c-27.2-1.2-55.1-0.9-80.8-7.3
	c-32.7-8.2-55.3-30.6-80.7-49c-12.3-8.9-23.9-22.9-37.1-33.5c15.7,8,31.7,17.9,44.1,26.9c25.4,18.4,43.8,41,76.5,49.1
	c25.7,6.4,51.3,9.1,78.5,10.2c26.9,1.2,53.7,5.6,81,5.3c27.4-0.3,55.2-3.3,81.9-1.5c13.9,1,26.5,5.1,38.8,9.9
	C1347.9,114.3,1334.5,113.8,1321,112.8z"/>
<path class="st0" d="M1215.6,106.6l-0.4,0.3c7-0.2,14.7,0.8,22.1,0.6l-0.5,0.1c18.7,0.1,35.9-1.9,54.5-2.7c-0.3,0-0.4,0.2-0.7,0.2c0.9-0.2,1.9-0.4,2.9-0.4c0.2,0.1-0.3,0.2-0.6,0.2c3.9,0.5,11.5-0.5,13.9,0c1.1-0.1,1.6-0.3,1-0.5c7.3,0.1,14.8,0.2,22.3,1.2c7.5,1,14.7,2.9,21.6,5c0.6,0.3,0.7,0.5,0.4,0.6c3.3,0.8,6.6,1.9,9.8,3l9,3.2l-10.1-0.4c-9.3-0.4-18.7-1.3-28-2c-0.5,0.2,1.3,0.4,0,0.5c4.1,0.6,7.6-0.1,11.3,0.6l-0.5,0.2c2.7,0.3,0.7-0.6,3.4-0.1c1.1,0.3-0.3,0.3,0.2,0.4c4.5,0.2,9.1,0.7,13.6,0.7l12.8,0.2l-11.5-3.7c-1.2-0.4-2.3-0.7-3.5-1c-0.9-1-5.7-2.1-7.4-3.2c-1.5-0.3-2.9-0.8-3.6-0.6c-9.4-3.1-19.8-5.1-30.3-5.2c-10.4-0.4-20.9-0.1-31.4,0.3c-9.8,1.4-21.5,0.8-33.1,1.6c-0.1,0-0.1-0.1,0-0.1c-3.8,0.4-9.3,0.7-13.8,0.6l-3.8,0.4c-26.9-1.2-54.1-5-81.7-6.2c-15.5-0.9-29.9-2.5-44.1-4.7c-7.1-1.1-14-2.4-21-3.8c-7.1-1.4-13.9-3-20.8-5.5c0.1-0.1-0.1-0.2,0.6,0c-7.8-3-14-7-20.4-11l0.1-0.1c-16.2-9.8-29.7-24.7-45.4-34.4c-12.4-8.9-26.8-17.7-42.2-25.5l-2.6-1.3l2.2,1.8c5.5,4.4,10.8,9.4,15.9,14.2l-0.2,0.1c6.7,6.2,12.9,12.7,20.1,18.4c7.3,5.5,14.3,11.3,21.7,16.9c14.7,12,32.5,22.9,51.4,30.1c5.7,2.6,13.1,4.1,20.4,5.1c7.3,1,14.6,1.5,20.6,2.6c24.8,3.9,49.6,1.7,74.6,4.2c11.4,1.6,22.8,3,34.3,3.8c5.7,0.4,11.4,0.7,17.1,0.8c5.7,0.1,11.4,0.1,17,0.3c10.7-0.9,22.5,0.5,34.4,0.2l-0.4-0.3c4.2,0.8,9.6-1,12.2,0.2l-0.5,0c2.2,0.6,5.4-1.3,6.7-0.5l0.4-0.3c2.7,0,0.3,0.3,2.4,0.5c0.8,0,0.4-0.5,2-0.3c0.2,1.2,6.7,0.1,6.7,1.4c-1.5-0.1,2.2,0.7-1.1,0.7c0.9,0.2,5.5,0.4,5.2-0.2c0.5-0.6,2.4-1-0.3-1.6l-0.6,0.4c-0.9-0.5-0.7-0.3-1-0.6c-3.6-0.3-4-0.9-6.6-1.3c0,0,0.1,0,0,0c-1.8,0.4-4.3,0-5.7-0.1l-0.5-0.3c-0.8-0.5-4.3,0.9-3.1,0c-7.4,0-16,0-24.3,0.1c-1.2,0.3-6.4,0-4.6,0.7c-2-0.7-8.2-0.8-10.5-0.7c0.1-0.1,0.2-0.2,0.6-0.1c-4.4-0.9-5.3,1-9.4-0.1c-0.7,0.8-7.6-0.1-9.9,0.9c-0.5-0.2-0.7-0.3-0.5-0.5c-7.5,0.2-15.5-0.4-21.7-0.9c-5.4,0.4-12.8-1.5-17.5-1c-3.7-0.7-9.7-1.8-15.1-2.1l0.5-0.1c-6-0.7-13.5-1.5-17.8-1.2c-1.6-1.1-4.3-1.2-6.8-1.6c-4.2,0.1-12.3-0.3-18.5-0.1c-0.9-0.5-5.1,0-5.4-0.6c-17.4,0.7-38.8-0.6-56-5.2l0.3,0c-2.4-0.1-5.3,0-7.8-0.1c-0.2-0.1-0.1-0.2,0.3-0.1c-3.2-0.8-5.9-2.1-8.9-3.1c0.1-0.1,0.1-0.1,0.6,0c-3-0.7-5.5-2.6-9-3.5l-0.1-0.2l-2.2-0.7c0.2-0.2,0.4-0.4,1.5,0.2c-24.5-11.3-45.2-29.3-67-45.3l0.9,0.5c-1.4-1-2.9-2-4.2-3.1c0.1-0.1,0.3,0.1,0.6,0.2c-4.6-4.6-10-8.9-14.5-13.5c0.1,0,1,0.5,0.5-0.2c-3.9-2.9-4.8-5.8-7.7-6.6c-0.1-0.2,0-0.5,0.5-0.2c-2.8-2.4-5.6-4.8-8.5-7.1l-1.7,1.9c9.1,4.5,17.9,9.6,26.2,15c10.5,5.2,20.2,13.2,29.8,19.9l-0.2,0.1c12.4,8.9,23.4,20.3,37.3,28.5c5.7,3.5,10,5.3,16.3,7.9l0,0.3c11.4,3.2,23.6,7.5,36.3,8.6l-1,0.2c2.1-0.2,7.4,1.4,6.9,0.3l2.1,0.6c8.7-0.1,15.2,2.5,25.9,2.5l-0.7,0.2c2.8,0,6.1,0.1,8.1,0.5c-0.3,0-0.2,0.1-0.9,0.1c8.6,1.5,18.5,0.7,27.7,1.5l-1.1,0.3c4.5-0.2,12.6,1,18.4,1.3l-0.4,0.2l3,0v0.4C1201,105.8,1208.2,106.1,1215.6,106.6z"/>
<path class="st0" d="M1102.9,283.9c-1.3-0.5-0.6-0.4-1.9-0.9l-20-6.2c-2.3-0.8-4.5-1.6-6.6-2.5c5.5,2.9,11,4.2,15.7,5.6C1094.9,281.3,1099.2,282.4,1102.9,283.9z"/>
<path class="st0" d="M1111.1,286.3c5.5,1.2,9.3,1.6,12,2.1c2.7,0.5,4.4,0.8,5.5,1.2c-1.7-0.5-6.4-1.7-10.8-2.3C1113.5,286.6,1109.9,285.9,1111.1,286.3z"/>
<path class="st0" d="M1485.1,1110c0.1,0.8,0.3,1.5,0.5,2.2c-0.3-5,0.5-10.1,0.9-15.4c0.2-2.6,0.3-5.3,0-7.9c-0.3-2.6-0.9-5.2-1.5-7.8c-1.3-5.1-2.9-10.3-2.2-15.7c0.6-5.4,2.5-10.7,3.1-16.3c0.5-11,0.5-22,1.1-32.9c0.3-5.5,1-10.9,0.7-16.4c-0.4-5.5-2.1-10.6-2.6-15.9c0.1,1,0.3,1.9,0.5,2.8c-0.3-1.7-0.4-3.3-0.5-5c0-1.6,0-3.4-0.2-5.1c-0.5-3.4-1.6-6.6-2.5-9.8c-0.9-3.2-1.5-6.5-1.1-9.8c0.3-3.3,1.3-6.6,2.2-9.9c0.9-3.3,1.8-6.6,2.1-10c0.2-3.3,0.9-6.6,1.8-9.8c0.9-3.3,1.9-6.5,2.5-9.9c0.6-3.3,0.5-6.7,0.2-10c-0.4-3.3-0.9-6.5-1.2-9.8c-0.3-3.2,0.1-6.5,0.3-9.8c0.6-6.6,1.1-13.1,1.7-19.7c0.4-6.6,0-13.1,0.6-19.6c0.6-6.5,3-12.9,4.2-19.4c1.1-6.5,1-13.1,1.5-19.6c0.5-6.5,1.5-13,2.2-19.6l1.2-9.8c0.5-3.3,1.2-6.5,1.9-9.8c1.4-6.5,2.5-13.1,2.6-19.6c0.1-3.3,0.2-6.6,0.5-9.9c0.4-3.3,0.9-6.6,0.9-9.9c0.1-3.3,0.1-6.6,0.3-9.9c0.2-3.3,0.4-6.7,2-9.9c1.5-3.2,3.6-6.1,5.3-9.2c0.8-1.5,1.6-3.1,2-4.7c0.4-1.6,0.6-3.3,1-5c0.7-3.3,1.6-6.6,2.3-10c0.7-3.3,1.7-6.7,1.4-10c0.2,1.6,0.3,2.2,0.1,3.9c1-5.3-2.4-10.5-3.9-16.1c-0.3-1.5,0.6,1.6,1.3,3.3c-0.8-2.7-1.9-5.8-1.4-9.3c0.5-3.4,1.9-7,3.3-10.6c1.3-3.6,2.7-7.5,2.6-11.5c-0.2-4-1.6-7.7-2.5-11.5c-1-3.7-1.4-7.8,0.4-11.4c1.7-3.5,4.1-6.6,5.8-9.5c1.8-3,2.7-5.9,2.2-8.5c-0.3-2.6-1.2-4.6-1.9-6.3c-2.9-5.8-4.1-8.5-2.9-5c-1.1-2.4-1.9-5.1-1.8-7.9c-0.1-2.6-0.2-5.3-0.5-7.9c-0.4-5.3-1.2-10.6-1.1-16c0.1-5.4,0.7-10.8,0.6-16.1c-0.1-2.6-0.5-5.3-0.5-8.1c0-2.7,0.2-5.5,0.3-8.2c0.2-5.4,0.2-10.8-2.2-15.7c-2.3-4.9-5.9-9.2-8.6-14.2c-2.7-5-3.7-10.5-5.3-15.7c-1.5-5.2-3.8-10.1-8.1-13.9c-4.1-3.9-9.3-7.1-13.7-11c-4.3-3.9-8.7-7.7-13.4-11.2c-2.3-1.8-4.9-3.3-7.3-5.2c-2.4-1.9-4.4-3.9-6.6-5.9c-4.2-3.9-8.6-7.7-14.6-9c-5.9-1.5-12.5-1.8-18.6-4.3c-5.9-2.6-10.4-6.4-15.3-9.5c-9.5-6.5-22.9-7.6-33.9-13.3c-4.1-2.2-4.7-2.8-3.4-2.3c-4.5-2.4-9-4.8-13.7-6.7c-4.7-1.8-9.9-2.8-15.2-4c-2.6-0.6-5.3-1.3-7.9-2.1c-2.6-0.9-5-2-7.4-3.2c-4.7-2.3-9.1-5-13.8-7c-4.8-1.8-9.9-4.2-14.4-6.6c-2.3-1.2-4.6-2.3-7-3.4c-2.3-1-4.8-1.9-7.3-2.9l-18.8-7c-1.2-0.4-2.3-0.8-3.6-1c-2.5-0.5-5.2-0.6-8-0.8c-5.4-0.3-11.8-0.4-16.9-3.3c-4.9-2.8-8.2-6.6-12.2-9.5c-3.8-3-8.8-4-14.3-4.6c-5.4-0.6-11.4-1-16.6-3.3c-5-2-9.9-4.1-14.8-6.1c-4.8-2-10-3.8-14.8-6.1c-4.9-2.2-9.6-4.3-14.6-6.2c-5.2-2.2-9.4-5.2-13.8-7.7c-2.9-1.4,6.9,4.4-0.1,0.6c2.8,1.7,5.5,3.5,8.3,5.1c2.8,1.7,6.2,3,9,4c5.8,2.3,11.3,4.9,17.1,7.1c5.8,2.1,11.2,4.3,16.8,6.7c2.8,1.2,5.6,2.3,8.5,3.4c3.1,1.1,6.4,1.7,9.7,2.1c-1.1,0-2.3-0.1-3.4-0.2c9.5,1.3,10.2,1.1,11.3,1.2c0.5,0,1.1,0,2.6,0.3c1.5,0.3,4.1,0.7,7.5,2.9c5.3,4-1.6-0.7,0.9,1.1c3.5,2.5,6.6,5.8,10.8,8.6c2,1.4,4.6,2.6,7.3,3.2c2.7,0.7,5.3,0.9,7.9,1c5.1,0.3,10.2,0.3,14.2,1.6c4.5,1.7,9.1,3.4,13.5,5.1c4.4,1.7,9.2,3.3,13.4,5.1c4.2,1.8,8.2,4.1,12.5,6.1c2.1,1,4.3,2,6.6,2.9c2.1,0.8,4.1,1.7,6.1,2.7c4,2,7.9,4.2,12.1,6.1c1.9,1.1,5.5,2.7,10,3.9c4.5,1.2,9.9,2.2,15,3.8c5,1.6,9.8,4.2,14.2,6.6c4.4,2.5,8.6,4.7,12,6.1c4.8,1.8,9.8,3.1,13.8,4.3c4,1.2,7.2,2.3,8.9,2.9c7.2,3.3,12.7,9.1,20.8,12.7c8.4,3.5,17.8,2.9,24.5,6.7c6.8,3.7,11.2,10.4,18.4,15c6.7,4.5,12.5,9.6,18.4,15c6.2,5.3,13.5,9.4,17.1,15.7c3.7,6.2,4.3,13.9,7.3,21.1c3.2,7.3,9,13,11.1,19.8c2,6.8,0.5,14.5,0.7,22.2c0,2,0.3,3.9,0.4,5.7c0.1,1.8,0.1,3.7,0,5.6c-0.1,3.7-0.5,7.5-0.5,11.4c-0.1,7.8,1.3,15.2,1.5,22.7c0,1.8,0,4,0.6,5.9c0.5,1.9,1.3,3.8,2.2,5.5c1.6,3.5,3.4,6.8,3.6,10.2c0.2,3.3-2,6.7-4.2,10c-2.1,3.4-4.8,6.9-5.2,11.3c-0.3,8.2,4.6,15.1,2.9,22.2c-0.7,3.6-2.2,7.2-3.6,10.9c-0.7,1.9-1.3,3.8-1.7,5.8c-0.4,1.9-0.5,4.2-0.1,6.1c0.8,4,2.5,7.4,3.5,10.9c0.5,1.8,0.8,3.5,0.6,5.2c-0.2,1.8-0.6,3.7-1,5.5l-2.7,11.3c-0.5,1.9-0.7,4-1.1,5.6c-0.5,1.7-1.4,3.4-2.4,5.1c-1.8,3.2-4.1,6.5-5.5,10.2c-0.7,1.9-0.9,3.9-1.1,5.7c-0.2,1.9-0.2,3.8-0.3,5.6c-0.1,3.7,0,7.5-0.4,11.2c-0.5,3.7-1,7.7-1,11.5c-0.2,3.9-0.2,7.8-0.7,11.6c-0.5,3.9-1.3,7.8-2.1,11.7c-0.8,4-1.7,8-2.3,12c-0.5,4-1.1,8.1-1.6,12.2c-0.5,4.1-1.1,8.1-1.6,12.3c-0.4,4.2-0.6,8.3-0.9,12.4c-0.3,4.2-0.6,8.2-1.6,12.3c-0.9,4.1-2.2,8.2-3.1,12.5c-1.7,8.6-0.8,17.1-1.5,25.4c-0.7,8.5-1.6,16.8-2.1,25.5c0,0.5-0.1,0.4-0.1-0.1c0,5.7,1.7,11.7,1.8,18c0.1,6.3-2.9,13-4.2,20.1c-0.4,1.8-0.4,3.7-0.6,5.3c-0.2,1.7-0.6,3.5-1,5.2c-0.9,3.5-2,7-2.7,10.6c-0.8,3.6-0.8,7.3,0,10.7c0.7,3.4,1.8,6.6,2.5,9.8c0.5,1.8,0.8,3.5,0.9,5.3c0,1.8,0.1,3.8,0.4,5.6c0.5,3.7,1.6,7.3,2.2,10.9c0.9,4.8,0.3,9.7,0,14.7c-0.4,4.9-0.8,9.9-0.8,14.9l-0.7,22.3c-0.1,2.4-0.6,4.8-1.2,7.3c-1.1,4.9-2.6,10-2.1,15.1c0.4,5.1,2.1,9.8,3.1,14.6c2.3,9.5-1.7,19.5-0.6,29.8c0.5,5,1.7,9.9,2.4,14.8c0.8,4.8,0.7,9.8,0.6,14.8c-0.1,5-0.3,10.1,0.3,15.1c0.5,5,1.5,9.9,2,14.8c0.3,2.5,0.6,4.9,0.3,7.3c-0.2,2.4-0.8,4.9-1.3,7.4c-0.6,2.5-1.2,5-1.5,7.6c-0.3,2.6-0.1,5.2,0.1,7.7c0.5,5,1.3,9.9,1.8,14.9l0.3,3.7c0.1,1.3,0.2,2.6,0.5,3.8c0.5,2.5,1.2,4.9,2,7.3c1.5,4.8,2.7,9.5,1.9,14.4c-0.7,4.9-2.4,9.8-3,15c-0.3,2.7-0.1,5.1-0.3,7.6c-0.1,2.5-0.3,5-0.5,7.5c-0.5,5-0.6,10.1-0.8,15.1l-0.8,15.1c-0.3,5-0.9,10-1.3,15.1c-0.4,5-1.3,10.1-0.9,15.2c0.3,5.1,1.1,10,0.6,14.9l-2.2,15l-1.1,7.5c-0.5,2.6-0.5,5.2-0.4,7.8c0.2,5.1,0.8,10-0.3,14.8c-1.2,4.8-3.6,9.5-5.8,14.3c-1.1,2.4-2.1,4.9-2.9,7.4l-2.5,7.3l-5,14.6c-1.9,4.7-4.7,9.2-7.3,13.9c-2.6,4.7-4.7,9.6-7,14.2l-3.9,8c-1.3,2.7-2.5,5.4-4.2,7.8c-3.3,4.9-7.7,9.5-11.1,14.6c-3.4,5.2-5.8,10.6-8.7,15.6c-1.4,2.6-3,4.8-4.8,7.5c-1.7,2.6-2.9,5.3-4.2,7.9c-2.4,5.3-4.9,10.3-9.2,14.4c-4.2,4.2-9.2,8-13.7,12.4c-2.3,2.3-4.1,4.3-6.5,6.3c-2.3,1.9-4.8,3.8-7.2,5.7c-2.4,1.9-4.9,3.9-7.2,6.1c-2.3,2.2-4.2,4.7-5.8,7.2c-3.2,5-5.8,9.9-10.3,13.6c-4.4,4.1-8.8,8.3-13.2,12.4c-4.4,4.1-9.1,7.6-14.2,11.1c-2.5,1.7-5.1,3.5-7.6,5.3c-1.2,0.9-2.5,1.8-3.7,2.8c-1.2,0.9-2.4,1.7-3.6,2.5c-5,3.3-10.7,6-15.9,9.5c-5.2,3.6-9.8,7.3-14.7,10.9c-4.8,3.7-9.7,7.3-14.6,10.8c-4.9,3.6-9.8,7.1-14.8,10.4c-9.9,6.8-21.2,11.7-32.6,16.9c-5.7,2.7-11,5.8-16.7,8c-2.7,1-6,2.1-8.8,3.3c-2.9,1.2-5.8,2.4-8.6,3.5c-2.8,1-5.8,2.1-8.5,2.4c-2.9,0.4-5.9,0.2-9,0.1c-3.1-0.1-6.4-0.3-9.8,0.2c-3.5,0.4-6.9,2-9.6,3.6c-5.5,3.3-10,7.2-15.8,7.5c-5.9,0.7-12.2-0.3-18.8-0.1c-3.4,0.1-6.8,0.8-9.9,1.6c-3.1,0.8-6.2,1.8-9.3,2.7c-3,0.9-6.1,1.8-9.1,2.6c-2.9,0.6-6.4,1.4-9.4,2.5c-6.2,2.1-11.9,4.8-17.9,6.1c-6,1.3-12.4,1.2-18.9,1.7c-3.2,0.2-6.7,0.7-9.8,1.4l-9.6,1.8c-6.4,1.2-12.8,2.4-19.2,3.7c-6.4,1.1-12.9,2-19.4,3.2c-6.3,1.5-12.8,1.5-19.4,1.9c0.3-0.1-1.4-0.1,4-0.4c-3.8,0.2-7.7,0.3-11.5,1c-3.9,0.6-7.7,2.1-10.9,3.8c-3.3,1.7-6.4,3.5-9.6,5c-1.6,0.7-3.3,1.3-4.9,1.7l-5.4,1.2c-7.2,1.6-14.2,3.6-21.3,4.9c-7,1.4-14.2,2.1-21.3,3.3l-5.3,0.9c-1.6,0.3-3.4,0.4-5.1,0.3c-3.4-0.1-6.9-0.5-10.5-0.8c-3.5-0.3-7.3-0.4-11,0.3c-3.6,0.8-7.1,1.9-10.4,3.2c-6.6,2.6-13,5.1-20,5.6c-7,0.7-14.2,0.3-21.5,1.9l0.2-0.2c-9.5,2.4-15.3,9.5-23.6,11.5c-8.5,1.9-17.7,1.8-26.8,3.6c-8.6,1.7-17.6-1.3-27,0.6c-9.1,1.9-17.6,5.3-26.4,7.1c-9,1.4-18.1,2.5-27.2,3.8c-9.4,0.7-18.1,4.6-26.9,6.1c-4.4,0.8-8.9,0.3-13.4,0c-4.5-0.4-9-1-13.5-1.5c-9.1-0.4-16.7-4.8-25.9-6.2c-8.8-1.7-17.7-3.2-26.4-5c-4.3-0.9-8.6-2.1-12.9-3.2c-4.3-1-8.7-2.2-13.4-2.3c-9.2-0.3-18.6,2-26.4-1.3c-3.9-1.5-7.4-3.7-11.3-5.7c-1.9-0.9-3.9-1.8-6.1-2.5c-2.2-0.6-4.4-1-6.6-1.3c-4.4-0.7-8.7-1.4-13.1-2c-2.2-0.3-4.3-0.7-6.4-1.1c-2.1-0.4-4.4-0.9-6.6-1c-9-0.5-17.9,1.4-26-1.5c-8.3-2.2-16.5-4.3-24.6-6.4c-8.1-2.2-15.7-5.3-23.9-7.3c-5-1.2-10.1-1.9-15.1-2.9c-5-1-10.1-2.1-14.1-4.9c-4.1-2.6-7.6-5.8-12.1-8.2c-4.5-2.5-10.1-3-15.4-3.3c-5.3-0.3-10.7-0.6-15.3-2.8c-4.7-2-9.1-4.5-13.6-6.8c-4.5-2.4-9.6-4-13.6-6.9c-4.2-2.7-8.1-5.9-12.7-8.2c-4.7-2.4-10.2-3.2-15.5-4.3c-2.6-0.5-5.3-1.1-7.7-2c-2.4-0.9-4.7-2.1-7.2-3.1c-4.9-2-9.8-3.9-14.6-6c-4.8-2.1-9.1-4.8-13.2-7.8c-4.1-3-8.5-5.8-13-8.3c-4.4-2.7-8.3-5.9-12.5-8.8c-8.8-5.6-17.9-10.6-26.9-15.9l-13.5-8l-6.8-4c-2.3-1.3-4.9-2.3-7.4-3.2c-5.1-1.8-10.4-3.3-14.8-6c-4.4-2.8-8.4-5.9-12.5-9c-4-3.2-8.7-5.7-12.3-9.2c-3.7-3.4-7-7.2-11.2-10.3l-13-8.6c-4.3-2.9-8.9-5.5-12.5-8.9c-3.8-3.3-7.1-7-11.1-10.2c-4.1-3.1-8.5-5.8-12.8-8.7c-2.2-1.4-4.3-2.8-6.5-4.3c-2.1-1.4-4.2-3-6.6-4.1c-4.8-2.3-10-3.9-14.6-6.3c-2.3-1.2-4.3-2.8-6.4-4.2c-2.1-1.4-4.3-2.8-6.5-4.2c-4.3-2.8-8.7-5.5-12.6-8.7c-3.8-3.2-7.2-6.8-10.8-10.1c-3.6-3.4-7.9-6.2-11.9-9.2l0.5,0.1c-6.5-4.7-12.7-9.7-19.6-14c-6.7-4.4-14.3-8.3-18-15c-2.1-3.1-4-6.4-6.7-9.2c-2.7-2.9-6.3-4.9-9.9-6.8c-3.6-1.9-7.4-3.5-10.9-5.6c-3.5-2.1-6.5-4.6-9.8-6.8l-9.7-6.9c-1.6-1.2-3.3-2.3-4.8-3.5c-1.5-1.2-2.9-2.6-4.1-4c-2.5-2.9-4.6-6-7.2-8.9c-2.4-3-5.8-5.3-8.8-7.7l-14-10.9c-1.5-1.2-3.3-2.4-5.2-3.2c-3.9-1.6-8.1-2.5-12.1-3.7c-4-1.1-7.9-2.7-10.5-5.4c-5.3-5.4-6.9-13.1-13.6-18.1c-3.3-2.4-7.2-3.9-10.8-5.7c-1.8-0.9-3.5-1.9-5.1-3c-1.5-1.2-2.9-2.5-4.3-3.8c-5.5-5.3-9.6-11.7-15.1-17.2c-2.5-2.8-4.9-5.8-5.8-9.2c-0.9-3.4-0.6-7.1-0.1-10.8c0.5-3.7,1.1-7.4,0.8-11.1c-0.3-3.8-1.6-7.3-3.2-10.7c-1.6-3.4-3.4-6.7-4.8-10c-1.4-3.3-2.2-6.9-3.5-10.5c-1.2-3.5-3.5-7-6.6-9.5c-3-2.7-6.2-5-9.4-7.4c-3.2-2.4-6.2-4.9-8.6-7.8c-2.5-2.9-4.6-6.1-6.8-9.2c-2.2-3.3-5.3-6.1-8.2-8.8c-2.9-2.8-5.5-5.8-5.9-9.5c-0.5-3.7,0.3-7.5,1.3-11.3l1.6-5.7c0.5-2,0.9-3.8,1.8-5.6c1.6-3.6,3.9-7.1,5.5-10.9c1.8-3.8,1.9-8.1,0.7-11.9c-1.1-3.8-2.9-7.4-4.5-10.9c-1.4-3.8-4.6-7-8.2-9.3c-3.6-2.4-7.5-4.4-10.8-6.8c-3.3-2.4-5.6-5.7-7.7-9.1c-2.1-3.4-4.1-6.9-7-9.9c-2.9-2.9-4.9-6.3-6.6-9.8l-2.4-5.4c-0.9-1.9-2.3-3.4-3.8-4.9c-2.9-2.9-6.4-5.5-7.9-9.1c-1.2-3.6-0.4-7.7,0.3-11.6c0.4-2,0.7-3.9,0.8-5.9c0.1-2-0.3-4-0.1-5.9c0.1-3.9,1-7.8,1.5-11.8c0.5-3.9,0.6-8-1.3-11.7c-1.7-3.6-4.1-6.9-5.7-10.5c-1.8-3.6-1.6-7.7-0.7-11.5c0.9-3.9,2.3-7.7,2.9-11.7c0.3-2,0.2-3.9,0.2-5.9c0-2,0-3.9,0.1-5.9c0.1-7.8,1.7-15.9-1.7-23.3c-1.2-3.7-2.6-7.5-2.4-11.4c0.3-4,2-7.8,3.7-11.5c1.7-3.7,3.3-7.5,3.7-11.4c0.7-3.9,1.6-7.8,2.5-11.6c0.9-3.9,2.1-7.7,2.7-11.6c0.6-3.9,0.7-7.8,1.2-11.7c0.4-3.9,2.1-7.6,2.9-11.5c0.9-3.8,1.5-7.7,2.6-11.5c0.8-2.3,1.5-4.7,3-6.8c1.5-2.1,3.6-4,5.7-5.7c4.3-3.5,9.3-6.8,11.8-11.8c2.7-4.7,4.6-9.7,7.6-14.4c1.4-2.3,3.4-4.5,5.1-6.8c1.8-2.3,3.5-4.5,5.3-6.8c3.6-4.5,7.7-8.7,12.5-12.6c2.3-1.9,4.7-3.9,7-5.9c2.3-2,4.4-4.1,7-5.8c5.1-3.5,11.1-6.3,15.1-10.8c3.8-4.7,4.4-10.4,7.5-15.4c3.2-5,9.3-8,14.1-11.7c5.2-3.6,7.9-8.8,9.7-14c1.9-5.2,3.3-10.5,6.4-15.3c3-4.8,6.5-9.3,9.4-14c1.5-2.3,2.7-4.7,3.8-7.1c1.2-2.4,2.4-4.8,3.6-7.1c2.5-4.7,4.9-9.3,6.9-14c1.9-4.7,3-9.4,4.6-14c1.4-4.6,4.1-8.8,6.4-13c4.7-8.5,9.6-17,14.1-25.5c2.2-4.3,5.1-8.3,7.4-12.6c2.3-4.3,4.3-8.6,6.9-12.7c4.3-8.8,16.2-12.5,21.6-21.2c2.8-4.1,4.7-8.5,7.2-12.6c2.3-4.2,5.6-7.9,9.2-11.4c3.6-3.5,7.4-7,10.8-10.7c3.5-3.8,5.5-8.3,7.7-12.5c1.1-2.1,2.3-4.2,3.7-6.1c1.4-1.9,3.2-3.6,5.1-5.3c3.8-3.3,8.1-6.3,12-9.6c2-1.7,3.7-3.6,5.6-5.2c1.9-1.7,3.9-3.2,5.9-4.8c4.1-3.1,8.3-6.2,11.9-9.9c3.5-3.7,6.1-7.9,9.1-11.7c1.5-1.9,3.1-3.8,4.9-5.4c1.8-1.6,4-3,6.3-4.2c4.6-2.5,9.6-4.5,14-7.6c4.1-3.3,8-6.4,12.2-9.5c8.5-6,16.1-12.9,24-19.3c2-1.6,4.1-3.1,6-4.8c2-1.7,3.7-3.5,5.5-5.3c3.5-3.6,7-7.3,11.2-10.1c4.3-2.9,9-5.3,13.6-7.8c4.7-2.5,8.9-5.6,13.4-8.4c17.3-11.7,35.9-21.9,53.1-33.9c9.2-5.3,17.8-11.3,27.2-16.3c9.4-5,20-8.4,28.3-14.8c4-2.8,7.8-5.7,12.3-8.1c4.5-2.2,8.6-4.7,12.9-7.2c8.3-5.3,17.8-8.8,26.8-12.9c4.5-1.9,9-4.4,14.1-5.2c5-1,10-1.3,14.8-2.8c2.4-0.7,4.5-2,6.6-3.2l6.4-3.6c4.3-2.4,8.6-4.8,12.8-7.2c4.1-2.6,7.1-6.1,10.4-9.5c1.6-1.7,3.3-3.4,5.3-4.8c2-1.5,4.1-2.6,6-4.1c3.8-2.9,7.3-6.1,11.1-9c1.9-1.5,3.9-2.9,6.2-4c2.2-1.1,4.6-2,7-2.8c4.8-1.5,9.7-2.7,13.9-5c4.2-2.4,8.1-5.3,12-8c4-2.7,8-5.5,12.8-7.3c4.7-1.8,9.7-2.8,14.4-4.2c4.8-1.3,9.1-3.5,13.7-5.4c4.6-1.9,9.2-3.7,13.9-5.3c4.8-1.3,8.7-4,12.9-6.5c4.1-2.5,8.9-4.8,14-5.4c10.1-1.3,20.1,0.8,29.4-2.4c4.7-1.4,9.2-3.4,14.1-4.6c5-1.3,10.2-0.8,15-0.1c4.8,0.7,9.6,1.6,14.4,0.8c4.8-0.6,9.6-2,14.4-3.1c4.8-1.2,9.8-2.1,14.8-1.9c5,0,9.8,0.6,14.6,0.6c2.4,0,4.8-0.3,7.3-0.5c2.5-0.2,4.9-0.4,7.4-0.6c4.9-0.3,9.8-0.6,14.6-1.1c9.7-1.1,19.4-2.5,29.2-3.2c4.6-0.4,9.2-0.8,13.9-1.3c2.3-0.2,4.7-0.4,7-0.7c2.3-0.4,4.5-1.1,6.6-2c4.3-1.7,8.5-4,13.2-5.3c4.8-1.2,9.7-0.8,14.5-0.6c4.8,0.3,9.6,0.8,14.4,0.2c4.9-0.4,9.8-0.1,14.7,0c4.9,0,9.9,0.3,14.6-1.4c4.7-1.6,8.9-4.1,13.6-5.7c4.7-1.8,9.9-1.5,14.8-1.1c4.9,0.4,9.9,1.1,15,0.7c5-0.4,10.1-0.8,15.2-1.2c5.1-0.3,10.1-1,15.2-0.9c5,0.1,10.1,0.7,15.2,0.6c5.2-0.1,10.3-1,15.4-1.7c10.1-1.8,20.4-1.5,30.6-2.1l-2.9-0.1c3.7,0,7.5-0.2,11.3-0.2c3.8,0,7.7,0.2,11.6,0.4c3.9,0.2,7.9,0.2,11.7,0.3c3.8,0.2,7.6,0.7,11.3,1.1c3.7,0.4,7.3,0.9,10.8,0.9c3.6-0.1,6.9-0.9,10.1-1.5c3.2-0.7,6.2-1.3,9-1.3c2.8-0.1,5.3,0.4,7.4,1.1c-1-0.2-2-0.4-2.9-0.6c7.4,1.4,15,5.7,23.1,7.1c8.1,1.2,15.7,0.5,20.3,1.6c0.9,0,1.7,0,2.6,0.1c18.1,4,2,0.9,15.9,4c2.6,0.5,3.2,0.5,4.4,0.7c1.2,0.2,3.2,0.5,8.5,2.2c0.4,0.5,3.3,1.6,7.1,3.4c3.9,1.7,8.7,4.1,13.9,5.9c5.2,1.8,10.6,2.9,14.7,4.1c4,1.1,6.7,2.1,6.8,2.5c-9.4-2.9,14.4,5.1-6.8-1.1c1.5,0.4,4.5,1.2,7.9,2.4c3.4,1.1,7,3,10.4,4.9c3.4,1.9,6.7,3.6,9.1,4.6c2.4,1,3.9,1.3,3.3,1c2.8,0.3,13.9,4.1-2.7-3c-1.2-0.4-2.3-0.8-3.5-1.2c-5-3.2-3.9-2.4-5.5-3.7c-5.1-2.9-9.6-4.7-13.5-5.9c-3.9-1.2-7-2-9.9-2.9c-5.8-1.7-10.5-3.2-18.1-6.8c0.1,0.1,0.3,0.2,0,0.1c-5.4-2.1-12-5.1-18.8-6.7c-6.7-1.7-13.2-2.9-17.7-4.1l-3.7-1.2c-2.9-1.1-10.4-1.3-15.7-1.4c-5.4-0.1-8.8-0.7-5.2-0.6c-6-0.6-11.4-3.1-17.4-5.4c-3-1.1-6.2-2.2-9.8-2.6c-3.7-0.5-7.4,0.1-10.8,0.8c-3.4,0.7-6.7,1.5-9.9,1.9c-1.6,0.2-3.1,0.2-4.7,0.1c-1.7-0.1-3.3-0.3-5-0.5c-6.6-0.9-13.8-2-20.9-1.9c-6.9-0.2-14-0.8-21.3-0.6c-7.1,0.3-14.3,0.6-21.5,0.9c-7.3,0.2-14.6,1.7-21.6,2.5c-3.5,0.5-6.9,0.7-10.4,0.6c-3.5-0.1-7-0.4-10.7-0.5c-2,0-6,0.1-10.3,0.6c-4.3,0.4-9.1,0.8-13.3,1.2c-8.5,0.8-13.9,1.2-7.9,1.1c-3.5,0.2-8.6-0.3-14.8-1c-3.1-0.3-6.6-0.6-10.2-0.3c-3.9,0.4-7.5,1.8-10.8,3.3c-3.3,1.5-6.4,3.1-9.5,4c-1.6,0.5-3,0.7-4.6,0.9c-1.6,0.1-3.2,0.2-4.8,0.2c-6.2,0-11.9-0.4-16.1-0.1c0.6-0.1,1.3-0.2,3.9-0.2c-2-0.1-3.8-0.1-5.7,0c-1.9,0.1-3.2,0.2-4.8,0.2c-3,0-5.7-0.2-8.3-0.4c-5.3-0.3-9.9-0.6-14.8,0.3c-4.9,1-8.9,3.2-13.4,5.1c-2.2,1-4.6,1.9-7.2,2.4c-0.7,0.2-1.3,0.2-2,0.3c-0.8,0-1.6,0.1-2.4,0.1c-1.6,0.1-3.3,0.2-5.1,0.2c-2.2,0.7-15.3,1.3-29.7,3.3c-7.3,0.9-14.8,1.9-21.5,2.3c-6.7,0.5-13,1.1-16.9,1.8c-3.4,0-4.5-0.3-3.3-0.4c-6.2,0-12.7-1.1-19.9-0.3c-7,0.8-13.4,2.9-19.7,4.2c-1.6,0.3-3.2,0.6-4.7,0.7c-1.5,0.2-3,0.1-4.5,0.1c-3.1-0.2-6.2-0.8-9.5-1.2c-3.3-0.5-6.8-0.8-10.6-0.5c-3.7,0.4-7.1,1.4-10.2,2.5c-3.2,1.1-6.1,2.2-9.1,3.1c-2.9,0.9-5.7,1.3-8.8,1.4c-6.1,0.3-12.4-0.3-19.1,0.5c-3.3,0.4-6.8,1.4-9.7,2.8c-2.9,1.4-5.5,2.9-7.9,4.4c-2.4,1.4-4.8,2.8-7.1,3.7c-0.6,0.3-1.1,0.4-1.8,0.6l-2,0.7c-1.3,0.5-2.7,0.9-4,1.4c-4.4,1.7-9,3.7-13.6,5.7c-1.2,0.5-2.3,1-3.5,1.5c-1.1,0.5-2.2,0.9-3.4,1.3c-2.4,0.8-4.9,1.4-7.5,2.1c-2.6,0.7-5.3,1.4-8,2.3c-2.7,0.9-5.5,2.3-7.8,3.7c-4.8,2.8-9.1,6-13.5,8.9c-2.2,1.4-4.4,2.9-6.5,3.9c-2.2,1-4.6,1.8-7.2,2.6c-5,1.5-10.5,3-15.1,6c-4.3,2.8-7.8,6-11.1,8.8c-1.6,1.4-3.2,2.7-4.8,3.9c-0.8,0.6-1.6,1.2-2.4,1.7c-0.8,0.6-1.8,1.2-2.5,1.9c-5.5,4.1-9.4,10.2-15.8,14.1c-7,3.9-14.9,8.2-22.8,12.4c-3.7,1.7-8.4,2.2-13.2,2.9c-2.4,0.4-4.9,0.8-7.4,1.5c-1.3,0.4-2.5,0.8-3.8,1.3l-3.3,1.5c-4.4,2-8.8,3.9-13.1,5.9c-4.3,1.9-8.7,3.8-12.8,6.2c1-0.6,2.1-1.2,3.1-1.8c-4.7,2.4-9.2,5.3-13.8,8c-2.3,1.4-4.5,2.5-7.1,3.8c-2.6,1.4-4.9,2.9-7.2,4.5c-4.5,3.2-8.7,6.5-13.4,8.8c-4.8,2.5-9.9,4.6-14.8,7c-10.1,4.7-18.5,10.6-26.5,15.4c-8.2,4.7-14.9,9.8-20.7,13.6c-10.9,5.5-26,14.8-41,24.2c-1.4,0.9-2.9,1.9-4.5,3c-1.5,1-3.1,2-4.9,3.1c-3.5,2.1-7.7,4.1-12,6.7c-4.3,2.5-8.6,5.9-12.2,9.6c-3.7,3.7-7,7.5-11.3,10.6C5.2,496.8-2.8,504.5-12,511c-2.3,1.7-4.5,3.4-6.8,5.1l-3.3,2.6c-1.1,0.9-2.1,1.8-3.1,2.5c-4.1,3-9.3,5-14,7.7c-1.5,0.7-4.3,2.2-7.1,4.7c-2.7,2.5-5.2,5.7-7.4,8.8c-2.2,3.1-4.3,5.9-6.2,7.9c-1.9,1.9-3.6,3.2-4.1,3.4c-5.2,4.5-11.6,8.6-16.7,14c-4.8,4.9-11.4,8.9-16.9,14.4c-5.8,5.6-7.8,12.7-11.6,18.5c-3.8,5.7-10,10.7-15.3,16.3c-2.7,2.8-5.2,5.9-7.1,9.2c-1.9,3.3-3.5,6.6-5.3,9.8c-1.8,3.2-3.7,6.2-6.6,8.7c-2.8,2.5-6.2,4.8-9.4,7.4c-1.6,1.3-3.1,2.7-4.5,4.3c-1.4,1.6-2.3,3.3-3.3,4.9c-2,3.3-3.6,6.7-5.3,10c-1.7,3.4-3.5,6.5-5.6,9.8c-1.9,3.3-3.7,6.7-5.5,10c-3.6,6.7-7.3,13.3-10.9,20c-1.8,3.4-3.8,6.5-5.3,10.2c-1.5,3.6-2.5,7.2-3.5,10.7c-1.8,7-5.5,13.5-9,20.2c-1.8,3.3-3.5,6.7-5.2,10.1c-1.6,3.2-3.7,6.4-5.9,9.5c-2.2,3.1-4.5,6.2-6.5,9.5c-2.1,3.3-3.6,6.9-4.8,10.4c-2.4,6.9-4.6,13.6-11,17.8c-3,2.3-6.6,4.3-9.8,6.9c-1.6,1.3-3.2,2.8-4.5,4.5c-1.2,1.7-2.1,3.5-2.8,5.2c-1.5,3.4-2.5,6.7-4.3,9.4c-1.6,2.5-4.7,4.6-7.9,6.6l1.4-1c-3.1,2.2-6.8,4.3-10.4,7c-1.8,1.3-3.4,3-4.8,4.4c-1.5,1.4-3.1,2.8-4.6,4.2c-3.2,2.8-6.5,5.6-9.3,8.7c-2.9,3.1-5.3,6.3-7.6,9.4c-1,1.2-1,1,1-1.6c-1.7,2.1-3.3,4.2-4.9,6.3c-1.6,2-3.4,4.1-4.9,6.3c-2.9,4.4-4.8,9-7.2,13.4c-1.2,2.2-2.5,4.2-4.3,6c-1.8,1.8-3.9,3.4-6.1,5.1c-2.1,1.7-4.3,3.4-6.3,5.5c-2,2.1-3.3,4.7-4.1,7.1c0-0.2-0.2-0.2,1.2-3.4c-2.2,4.7-3,9.5-4,14.2c-0.5,2.4-1,4.7-1.8,7c-0.9,2.4-1.5,5-1.9,7.5c-0.8,5.1-0.8,10.2-2,15.1c-1.2,5.1-2.6,10.4-3.6,15.9l-0.4,1.2c-0.5,2.4-0.6,4.7-1.2,6.8c-0.6,2.2-1.5,4.3-2.4,6.6c0-0.2-0.1-0.4,0.3-1.5c0.3-1.1,1.2-3,2.1-6.3c-1.2,4.9-4.2,9.7-5.9,15.2c-0.9,2.7-1.3,5.8-0.8,8.6c0.4,2.8,1.3,5.4,2.2,7.9c0.9,2.5,1.7,5,2,7.4c0.3,2.3,0,5,0,7.7c-0.2,5.3-0.6,10.7-0.5,16.1c0.2,4.9-2,10-3.2,15.5c-0.6,2.8-1,5.7-0.3,8.6c0.6,2.9,2,5.4,3.4,7.8c1.4,2.4,2.8,4.7,3.8,7c1,2.3,1.2,4.6,1.1,7.2c-0.2,5.1-1.8,10.5-1.8,16.1c0,0.7,0,1.4,0.1,2.1c0,0.6,0.1,1.2,0.1,1.8c0,1.2-0.2,2.5-0.4,3.8c-0.4,2.6-1,5.3-1.3,8.1c-0.1,1.4-0.2,2.9,0,4.3c0.1,1.5,0.7,3.1,1.5,4.4
c1.6,2.6,3.9,4.6,5.9,6.5c2,1.9,4,3.8,4.9,5.9c1.1,2.5,2.1,5,3.4,7.5c1.3,2.5,2.9,4.9,4.9,7.1c1.1,1.2,1.9,2,2.7,3.1c0.8,1,1.6,2.1,2.3,3.3c3,4.5,5.4,9.7,10.4,13.6c4.9,3.7,10.6,6.1,14.6,9.6c1,0.9,1.9,1.8,2.6,2.9c0.7,1,1.2,2.1,1.8,3.4c1.1,2.5,2.3,4.9,3.3,7.4c1,2.5,1.6,4.9,1.7,7.4c0.1,2.5-0.7,4.9-1.8,7.4c-1.1,2.5-2.6,4.9-3.9,7.5c-0.7,1.3-1.3,2.6-1.8,4c-0.5,1.4-0.8,2.8-1.1,4.1c-1.4,5.3-3.4,10.7-3,16.5c0.1,2.9,1.4,5.9,3.3,8.1c1.9,2.3,4.1,4.2,6.1,6.2c4.2,3.7,6.9,8.4,10.4,13c1.7,2.3,3.7,4.5,5.9,6.4c2.2,1.9,4.6,3.7,6.9,5.5c2.3,1.8,4.6,3.5,6.8,5.3c2.2,1.9,3.9,3.8,5.1,6.1c2.4,4.6,3.2,10.2,5.7,15.2c2.3,5,5.2,9.7,6.6,14.8c1.5,5,0.4,10.3-0.2,15.8c-0.3,2.8-0.5,5.6,0,8.4c0.4,2.8,1.8,5.5,3.5,7.8c1.7,2.3,3.7,4.4,5.7,6.5c2,2,3.6,4.2,5.4,6.4c3.6,4.4,7.3,8.7,12.2,12.4c5.1,3.5,11.3,5.2,15.8,8.6c4.4,3.3,6.5,8.5,9.6,13.2c1.6,2.4,3.4,4.7,6.1,6.5c2.6,1.8,5.8,2.8,8.8,3.7c6,1.7,12.3,2.8,16.5,6.5c-1.8-1.4-3.6-2.3-5.9-3.1c2.9,1,5,2.7,7.5,4.5l14.5,10.9c2.5,1.8,4.7,3.6,6.6,5.7c-0.2-0.1-1.4-1.3-2.6-2.3c4,3.8,6.8,8.5,10.8,12.8c2,2.2,4.5,4,6.8,5.7l7.1,5.1l7.2,5.1c2.4,1.7,4.8,3.6,7.5,5c5.4,3,11.1,5.2,15.9,8.4c4.8,3,7.4,7.9,10.5,12.5c1.6,2.3,3.3,4.6,5.7,6.5c2.3,1.9,4.8,3.5,7.3,5.1c10.1,6.1,18.9,13.1,28.1,19.8c-0.3,0-5.9-4-0.9-0.1c3.4,2.5,6.6,4.7,9.3,7.2c2.7,2.5,5.1,5,7.6,7.3c4.9,4.8,10.5,8.1,15.2,11.3c2.4,1.6,4.7,3,6.8,4.5c1.1,0.7,2.1,1.5,3.1,2.2c1.1,0.8,2.2,1.4,3.4,2c4.6,2.3,9.1,3.6,13.2,5.1c1.4,0.7,2.2,1.4-1,0.1c2.8,1.2,5.2,2.4,7.5,4.2c2.4,1.7,4.9,3.3,7.4,4.9c4.9,3.2,10.1,6.3,14.4,9.8c4.3,3.6,8.1,7.9,12.8,11.6c4.9,3.5,9.9,6.6,14.8,9.9l7.4,4.9c2.3,1.6,4.4,3.5,6.5,5.5c2,2,4,4.1,6.2,6c2.2,2,4.8,3.7,7.2,5.3c4.8,3.4,9.3,7.1,14.3,10.4c2.4,1.7,5.2,3.3,8.1,4.5c2.9,1.2,5.9,2.1,8.8,3.1c2.9,1,5.7,2.1,8.2,3.6l23.2,13.8l15.6,9.1c2.6,1.5,5.2,2.9,7.5,4.6c2.4,1.7,4.7,3.5,7.1,5.2c2.4,1.8,4.9,3.5,7.6,5c2.6,1.4,5.1,3,7.5,4.7c4.8,3.3,9.6,7,15.3,9.6c5.6,2.6,11.4,4.7,17,7.1l4.1,1.9c1.5,0.7,3,1.2,4.5,1.7c3.1,0.9,6.2,1.4,9.3,2.1c5.2,0.9,10,2.1,14.2,4.7c4.3,2.4,8.1,5.6,12.7,8.2c2.2,1.3,4.8,2.3,7.1,3.3c2.3,1.1,4.6,2.2,6.9,3.4c4.6,2.4,9.2,4.9,14.5,6.6c5.5,1.5,11.2,1.3,16.7,1.9c2.7,0.3,5.4,0.7,7.9,1.6c2.4,0.9,4.6,2.3,6.7,3.7c4.2,2.9,8.1,6.5,13.5,8.4c5.3,1.8,10.9,2.6,16.4,3.6c11.1,1.6,21.1,6.1,31.8,9.1l16.1,4.3l8.1,2.1c2.6,0.7,5.4,1.4,8.4,1.6c5.8,0.3,11.5-0.4,17.1-0.1c2.8,0.1,5.4,0.7,8.2,1.2c2.7,0.5,5.5,0.9,8.3,1.3c5.5,0.8,11.1,1.5,16.3,2.7c5.1,1.5,9.5,4.3,14.2,6.6h-0.5c3,1.5,6.4,2.8,10,3.2c3.6,0.4,7.3,0.3,10.9,0.1c3.6-0.2,7.3-0.5,10.8-0.3c3.6,0.2,7,1.1,10.5,1.8c13.6,3.8,28,6,42.2,8.7c7.1,1.2,13.5,4.4,20.8,5.5c7.3,0.8,14.5,1.8,21.9,2.3c3.7,0.2,7.5,0.1,11.2-0.6c3.7-0.7,7.3-1.8,10.8-2.8c7.1-2.3,14.6-2.8,22.1-3.9l11.2-1.5c3.7-0.5,7.5-0.9,11.1-1.8c7.3-1.7,14.4-4.3,21.7-6c7.3-2,14.8-0.4,22.3-0.3c1.9,0,3.8-0.1,5.7-0.4c1.9-0.3,3.7-0.7,5.6-0.9c3.7-0.5,7.5-0.8,11.2-1.2c3.8-0.4,7.5-0.8,11.2-1.6c3.8-0.9,7-2.8,10.2-4.7c3.1-1.9,6.1-3.9,9.5-5.4c3.3-1.5,7.1-1.8,10.8-2.2c7.4-0.6,15.1-0.2,22.4-2.2c7.3-2,13.9-5.4,21.1-7.1c6-1.5,11.9-0.4,17.6,0.1c2.9,0.2,5.7,0.4,8.6,0.1c2.9-0.4,5.5-1,8.2-1.4c5.4-0.9,10.7-1.5,15.9-2.4c5.2-0.9,10.3-2.1,15.4-3.3c5.1-1.3,10.1-2.5,15.3-3.6c5.3-1.3,9.7-4.2,14.5-6.6c2.4-1.2,4.8-2.4,7.5-3.2c2.7-0.8,5.5-1.1,8.4-1.3c5.7-0.5,11.7-0.3,18-1.2l1.3,0.1c10.3-2.1,20.9-3.4,31.4-5.6c5.3-1,10.6-2,15.9-3c2.7-0.5,5.3-1.1,8-1.5c2.7-0.4,5.4-0.5,8.1-0.7c5.4-0.3,11-0.3,16.4-1.5c5.4-1.2,10.5-3.3,15.7-5.2c2.6-0.9,5.2-1.8,7.9-2.3c2.7-0.5,5.5-1.2,8.1-1.9c5.4-1.5,10.6-3.2,16-4.5c5.4-1.4,10.9-1.1,16.4-0.8c2.8,0.1,5.6,0.2,8.4,0.1c2.8-0.1,5.8-0.7,8.4-1.9c5.2-2.4,9.2-6,14.2-8.1c5-2,10.7-1.3,16.2-1.2c2.8,0.1,5.7,0.1,8.5-0.4c2.8-0.6,5.5-1.5,8.1-2.5c5.2-2,10.2-4.3,15.3-6.1c5.3-1.9,10.1-4.5,14.9-7c4.8-2.5,9.8-4.7,14.6-7l-5.2,2.8c5.9-3,18-8.4,26.7-14.4c8.8-5.8,15.3-10.8,12.9-9.7c4.1-2.9,8.2-5.6,12.2-8.5c5.6-4.4,11.1-8.7,16.4-12.9c5.5-4.2,11.8-7.3,17.6-10.9c2.9-1.8,5.5-3.9,8.2-5.9c2.7-2,5.6-3.9,8.4-5.8c5.7-3.8,11-8,15.9-12.6c2.5-2.3,4.9-4.6,7.5-7c2.4-2.4,5.3-4.5,7.5-7.2c4.5-5.3,7-11.7,12.3-16.9c5.3-5.2,12.1-9.4,17.8-14.9c5.2-5.9,12.1-10.8,17.9-17c-0.9,1.1-1.9,2.2-3,3.3c3.3-3.1,6.5-6.7,8.5-10.7c2.1-4,3.7-8.2,5.8-12c1-1.9,2.4-3.7,3.6-5.5c1.2-1.8,2.2-3.6,3.2-5.3c1.9-3.5,3.6-6.7,5.2-9.5c-0.9,1.8-0.5,1-2.2,4.6c1.6-3,3.2-6,5.1-8.8c1.9-2.9,4.2-5.6,6.4-8.4c2.2-2.8,4.5-5.6,6.4-8.7c1.8-3.1,3.1-6.3,4.7-9.4c1.5-3.2,3-6.3,4.6-9.5c1.6-3.2,2.9-6.4,4.7-9.5c1.7-3.1,3.6-6.2,5.2-9.5c1.7-3.2,2.8-6.6,3.8-9.9c2.2-6.7,4.4-13.4,6.6-20.1c2.5-6.6,6.5-13,7.6-19.9c1-7-0.9-13.7,0.2-20.5c1-6.8,2-13.6,3-20.3l-0.4,6.1c0.3-3.3,1.1-6.8,1.3-10.8c0.1-3.9-0.4-8-0.7-12.3c-0.4-4.3,0.1-8.8,0.6-13.5c0.5-4.7,0.9-9.5,1.4-14.4c0.5-9.8,1.1-19.8,1.6-29.5c0.3-4.9,0.8-9.7,0.9-14.3c-0.2-4.6,0.9-9.1,1.9-13.3l-0.3,2.1c1.3-5.7,2.6-11.7,1-17.4l0.4-0.5c-1.3-5.5-3.6-10.6-3.9-16c-0.2-5.5-1.2-10.9-1.8-16.3c-0.3-2.7-0.7-5.4-0.6-8c0.1-2.7,0.7-5.3,1.3-8c0.6-2.7,1.2-5.4,1.5-8.1c0.3-2.8,0-5.5-0.3-8.1c-0.7-5.3-1.7-10.6-2.2-15.9c-0.5-5.3-0.3-10.7-0.2-16.1c0.1-5.4-0.2-10.8-1.3-16.1C1486.3,1120.7,1485,1115.4,1485.1,1110z"/>
</svg>
